<svg xmlns="http://www.w3.org/2000/svg" version="1.1" xmlns:xlink="http://www.w3.org/1999/xlink" xmlns:svgjs="http://svgjs.dev/svgjs" width="31.88" height="32" viewBox="0 0 2000 2306"><g transform="matrix(1,0,0,1,-1.2839222170304083,-3.7193548387097053)"><svg viewBox="0 0 215 248" data-background-color="#ffffff" preserveAspectRatio="xMidYMid meet" height="2306" width="2000" xmlns="http://www.w3.org/2000/svg" xmlns:xlink="http://www.w3.org/1999/xlink"><g id="tight-bounds" transform="matrix(1,0,0,1,0.13802163833076975,0.4000000000000057)"><svg viewBox="0 0 214.7239567233385 247.2" height="247.2" width="214.7239567233385"><g><svg viewBox="0 0 214.7239567233385 247.2" height="247.2" width="214.7239567233385"><g><svg viewBox="0 0 214.7239567233385 247.2" height="247.2" width="214.7239567233385"><g id="textblocktransform"><svg viewBox="0 0 214.7239567233385 247.2" height="247.2" width="214.7239567233385" id="textblock"><g><svg viewBox="0 0 214.7239567233385 247.2" height="247.2" width="214.7239567233385"><g transform="matrix(1,0,0,1,0,0)"><svg width="214.7239567233385" viewBox="0.05 -32.15 28.099999999999998 32.35" height="247.2" data-palette-color="#f42a2a"><path d="M12.15 0.2L12.15 0.2Q10.6 0.2 9.8-0.48 9-1.15 9-2.85L9-2.85Q9-4.15 9.43-6.48 9.85-8.8 10.65-11.65L10.65-11.65Q10.25-13.65 9.68-15.83 9.1-18 8.35-19.95L8.35-19.95Q7.4-22.6 6.05-24.4 4.7-26.2 2.85-26.2L2.85-26.2Q2.5-26.2 2.18-26.15 1.85-26.1 1.6-26L1.6-26Q1.1-25.9 0.58-26.7 0.05-27.5 0.05-28.6L0.05-28.6Q0.05-30 1.03-31.08 2-32.15 3.7-32.15L3.7-32.15Q5.8-32.15 7.58-30.78 9.35-29.4 10.73-26.15 12.1-22.9 12.95-17.3L12.95-17.3Q13.85-19.6 15.13-22.18 16.4-24.75 18-27.03 19.6-29.3 21.45-30.73 23.3-32.15 25.35-32.15L25.35-32.15Q26.7-32.15 27.43-31.5 28.15-30.85 28.15-29.7L28.15-29.7Q28.15-28.9 27.83-28 27.5-27.1 26.95-26.45 26.4-25.8 25.8-25.8L25.8-25.8Q25.6-25.8 25.38-25.83 25.15-25.85 24.9-25.95L24.9-25.95Q24.4-26.2 23.75-26.2L23.75-26.2Q22.15-26.2 20.25-24 18.35-21.8 16.5-17.2L16.5-17.2Q14.6-12.35 14.6-7.8L14.6-7.8Q14.6-6.75 14.88-5.73 15.15-4.7 15.9-3.85L15.9-3.85Q16.4-3.1 16.4-2.45L16.4-2.45Q16.4-1.35 15.2-0.58 14 0.2 12.15 0.2Z" opacity="1" transform="matrix(1,0,0,1,0,0)" fill="#f42a2a" class="wordmark-text-0" data-fill-palette-color="primary" id="text-0"></path></svg></g></svg></g></svg></g></svg></g><g></g></svg></g><defs></defs></svg><rect width="214.7239567233385" height="247.2" fill="none" stroke="none" visibility="hidden"></rect></g></svg></g></svg>